<mxfile host="app.diagrams.net" modified="2024-06-14T13:48:55.024Z" agent="Mozilla/5.0 (Windows NT 10.0; Win64; x64) AppleWebKit/537.36 (KHTML, like Gecko) Chrome/126.0.0.0 Safari/537.36" etag="u-bEqrVQnDqlBQKCDfiH" version="24.5.2" type="device">
  <diagram name="Page-1" id="RZA7sOvpiXDYSrB2jwhs">
    <mxGraphModel dx="1308" dy="1075" grid="0" gridSize="10" guides="1" tooltips="1" connect="1" arrows="1" fold="1" page="1" pageScale="1" pageWidth="1100" pageHeight="1700" math="0" shadow="0">
      <root>
        <mxCell id="0" />
        <mxCell id="1" parent="0" />
        <mxCell id="wWBEj3gwoumpx7wr8TZd-4" value="" style="edgeStyle=orthogonalEdgeStyle;rounded=0;orthogonalLoop=1;jettySize=auto;html=1;" parent="1" source="wWBEj3gwoumpx7wr8TZd-2" target="wWBEj3gwoumpx7wr8TZd-3" edge="1">
          <mxGeometry relative="1" as="geometry" />
        </mxCell>
        <mxCell id="wWBEj3gwoumpx7wr8TZd-11" value="" style="edgeStyle=orthogonalEdgeStyle;rounded=0;orthogonalLoop=1;jettySize=auto;html=1;entryX=0;entryY=0.5;entryDx=0;entryDy=0;" parent="1" source="wWBEj3gwoumpx7wr8TZd-2" target="wWBEj3gwoumpx7wr8TZd-10" edge="1">
          <mxGeometry relative="1" as="geometry">
            <Array as="points">
              <mxPoint x="185" y="410" />
            </Array>
          </mxGeometry>
        </mxCell>
        <mxCell id="wWBEj3gwoumpx7wr8TZd-2" value="LTLixir Specification" style="rounded=1;whiteSpace=wrap;html=1;verticalAlign=top;" parent="1" vertex="1">
          <mxGeometry x="110" y="230" width="150" height="100" as="geometry" />
        </mxCell>
        <mxCell id="wWBEj3gwoumpx7wr8TZd-1" value="Elixir Program" style="rounded=1;whiteSpace=wrap;html=1;fillColor=#d0cee2;strokeColor=#56517e;" parent="1" vertex="1">
          <mxGeometry x="135" y="270" width="100" height="40" as="geometry" />
        </mxCell>
        <mxCell id="wWBEj3gwoumpx7wr8TZd-6" value="" style="edgeStyle=orthogonalEdgeStyle;rounded=0;orthogonalLoop=1;jettySize=auto;html=1;" parent="1" source="wWBEj3gwoumpx7wr8TZd-3" target="wWBEj3gwoumpx7wr8TZd-5" edge="1">
          <mxGeometry relative="1" as="geometry" />
        </mxCell>
        <mxCell id="wWBEj3gwoumpx7wr8TZd-3" value="Elixir Compiler" style="whiteSpace=wrap;html=1;verticalAlign=middle;rounded=1;fillColor=#d0cee2;strokeColor=#56517e;" parent="1" vertex="1">
          <mxGeometry x="340" y="250" width="120" height="60" as="geometry" />
        </mxCell>
        <mxCell id="wWBEj3gwoumpx7wr8TZd-5" value="Erlang Compiler" style="whiteSpace=wrap;html=1;rounded=1;fillColor=#d0cee2;strokeColor=#56517e;" parent="1" vertex="1">
          <mxGeometry x="540" y="250" width="120" height="60" as="geometry" />
        </mxCell>
        <mxCell id="wWBEj3gwoumpx7wr8TZd-9" value="Erlang Runtime System" style="rounded=1;whiteSpace=wrap;html=1;verticalAlign=top;fillColor=#d0cee2;strokeColor=#56517e;" parent="1" vertex="1">
          <mxGeometry x="702.5" y="210" width="195" height="110" as="geometry" />
        </mxCell>
        <mxCell id="wWBEj3gwoumpx7wr8TZd-7" value="BEAM VM byte-code" style="whiteSpace=wrap;html=1;rounded=1;fillColor=#d0cee2;strokeColor=#56517e;" parent="1" vertex="1">
          <mxGeometry x="740" y="250" width="120" height="60" as="geometry" />
        </mxCell>
        <mxCell id="wWBEj3gwoumpx7wr8TZd-8" value="" style="edgeStyle=orthogonalEdgeStyle;rounded=0;orthogonalLoop=1;jettySize=auto;html=1;" parent="1" source="wWBEj3gwoumpx7wr8TZd-5" target="wWBEj3gwoumpx7wr8TZd-7" edge="1">
          <mxGeometry relative="1" as="geometry" />
        </mxCell>
        <mxCell id="wWBEj3gwoumpx7wr8TZd-16" value="" style="edgeStyle=orthogonalEdgeStyle;rounded=0;orthogonalLoop=1;jettySize=auto;html=1;" parent="1" source="wWBEj3gwoumpx7wr8TZd-10" target="wWBEj3gwoumpx7wr8TZd-15" edge="1">
          <mxGeometry relative="1" as="geometry" />
        </mxCell>
        <mxCell id="wWBEj3gwoumpx7wr8TZd-10" value="Verlixir" style="whiteSpace=wrap;html=1;verticalAlign=middle;rounded=1;" parent="1" vertex="1">
          <mxGeometry x="340" y="380" width="120" height="60" as="geometry" />
        </mxCell>
        <mxCell id="wWBEj3gwoumpx7wr8TZd-12" value="SPIN" style="whiteSpace=wrap;html=1;verticalAlign=middle;rounded=1;fillColor=#d0cee2;strokeColor=#56517e;" parent="1" vertex="1">
          <mxGeometry x="340" y="490" width="120" height="60" as="geometry" />
        </mxCell>
        <mxCell id="wWBEj3gwoumpx7wr8TZd-13" value="" style="endArrow=classic;html=1;rounded=0;exitX=0.25;exitY=1;exitDx=0;exitDy=0;entryX=0.25;entryY=0;entryDx=0;entryDy=0;" parent="1" source="wWBEj3gwoumpx7wr8TZd-10" target="wWBEj3gwoumpx7wr8TZd-12" edge="1">
          <mxGeometry width="50" height="50" relative="1" as="geometry">
            <mxPoint x="480" y="470" as="sourcePoint" />
            <mxPoint x="530" y="420" as="targetPoint" />
          </mxGeometry>
        </mxCell>
        <mxCell id="wWBEj3gwoumpx7wr8TZd-14" value="" style="endArrow=classic;html=1;rounded=0;exitX=0.75;exitY=0;exitDx=0;exitDy=0;entryX=0.75;entryY=1;entryDx=0;entryDy=0;" parent="1" source="wWBEj3gwoumpx7wr8TZd-12" target="wWBEj3gwoumpx7wr8TZd-10" edge="1">
          <mxGeometry width="50" height="50" relative="1" as="geometry">
            <mxPoint x="380" y="450" as="sourcePoint" />
            <mxPoint x="380" y="500" as="targetPoint" />
          </mxGeometry>
        </mxCell>
        <mxCell id="wWBEj3gwoumpx7wr8TZd-15" value="Verifier Output" style="whiteSpace=wrap;html=1;rounded=1;" parent="1" vertex="1">
          <mxGeometry x="540" y="380" width="120" height="60" as="geometry" />
        </mxCell>
        <mxCell id="wWBEj3gwoumpx7wr8TZd-18" value="Existing Tooling" style="rounded=1;whiteSpace=wrap;html=1;fillColor=#d0cee2;strokeColor=#56517e;" parent="1" vertex="1">
          <mxGeometry x="760" y="440" width="100" height="50" as="geometry" />
        </mxCell>
        <mxCell id="wWBEj3gwoumpx7wr8TZd-19" value="New Tooling" style="rounded=1;whiteSpace=wrap;html=1;" parent="1" vertex="1">
          <mxGeometry x="760" y="495" width="100" height="50" as="geometry" />
        </mxCell>
      </root>
    </mxGraphModel>
  </diagram>
</mxfile>
